<svg width="1440" height="1000" viewBox="0 0 1440 1000" fill="none" xmlns="http://www.w3.org/2000/svg">
<g clip-path="url(#clip0_710_2)">
<rect width="1440" height="1000" fill="#590065" fill-opacity="0.8"/>
<mask id="mask0_710_2" style="mask-type:alpha" maskUnits="userSpaceOnUse" x="0" y="0" width="1443" height="1023">
<rect width="1443" height="1023" fill="#D9D9D9"/>
</mask>
<g mask="url(#mask0_710_2)">
<path d="M2263.98 270.532C2190 546.625 1901.15 709.114 1618.81 633.461C1336.47 557.809 1167.56 272.663 1241.54 -3.4296C1315.52 -279.522 1604.37 -442.011 1886.71 -366.359C2169.05 -290.706 2337.96 -5.56044 2263.98 270.532Z" fill="#590065"/>
<ellipse cx="1220.17" cy="880.276" rx="272.566" ry="258.772" transform="rotate(15 1220.17 880.276)" fill="#590065"/>
<path d="M-452.949 1198.16C-432.867 1160.68 985.529 -779.285 985.529 -779.285C1003.4 -803.848 1043.22 -860.27 1136.01 -835.407C1185.39 -822.175 1230.01 -778.072 1235 -712.439C1250.09 -513.937 1282.3 -56.8019 910.005 534.626C497.302 1190.24 -243.475 1372.17 -280.426 1383.7C-317.378 1395.23 -385.424 1403.68 -438.393 1341.37C-479.685 1292.8 -473.031 1235.65 -452.949 1198.16Z" fill="#590065"/>
<path d="M1198.41 -143.749C1254.95 -184.829 1329.2 -190.961 1400.88 -171.539C1472.71 -152.078 1540.83 -107.212 1583.93 -48.1861C1669.93 69.5877 1646.31 232.769 1531.79 316.388C1474.47 358.24 1416.31 367.662 1361.94 352.531C1307.23 337.308 1255.32 296.926 1211.74 237.241C1188.99 206.076 1160.06 180.539 1134.6 156.815C1108.74 132.703 1086.75 110.704 1075.25 85.7724C1064.1 61.6127 1062.52 33.9655 1079.65 -2.43836C1097 -39.292 1133.45 -84.8827 1198.41 -143.749Z" stroke="url(#paint0_linear_710_2)" stroke-width="17"/>
<path d="M1273.69 -214.178C1318.65 -246.802 1377.79 -251.75 1435.09 -236.224C1492.54 -220.659 1547.01 -184.768 1581.45 -137.611C1650.11 -43.573 1631.22 86.6556 1539.86 153.363C1494.13 186.759 1447.86 194.205 1404.64 182.18C1361.1 170.063 1319.62 137.869 1284.71 90.0524C1266.29 64.8212 1242.87 44.151 1222.44 25.1144C1201.6 5.68959 1184.16 -11.8017 1175.07 -31.5185C1166.33 -50.4641 1165.01 -72.1907 1178.61 -101.08C1192.42 -130.42 1221.53 -166.901 1273.69 -214.178Z" stroke="url(#paint1_linear_710_2)" stroke-width="17"/>
</g>
<path d="M949.603 196.184C899.194 188.171 822.553 148.415 761.716 89.6838C700.872 30.9455 657.891 -44.7178 670.485 -123.945C672.584 -137.153 676.252 -145.997 680.675 -151.799C684.96 -157.418 690.269 -160.613 696.747 -162.077C710.561 -165.199 729.924 -160.555 754.303 -150.804C778.482 -141.133 804.777 -127.709 832.934 -115.057C860.594 -102.629 889.504 -91.2295 916.98 -86.8618C944.886 -82.4258 977.38 -86.8908 1009.07 -93.1172C1041.48 -99.4837 1072.53 -107.544 1100.32 -111.509C1114.03 -113.466 1126.32 -114.309 1136.85 -113.461C1147.39 -112.611 1155.59 -110.108 1161.63 -105.864C1172.94 -97.9271 1180.32 -80.9844 1174.39 -43.6557C1162.46 31.406 1130.79 95.668 1089.68 138.95C1048.54 182.265 998.633 203.978 949.603 196.184Z" stroke="url(#paint2_linear_710_2)" stroke-width="17"/>
<path d="M-34.9244 853.269C-18.8588 798.993 37.1591 764.19 104.99 748.028C172.507 731.941 248.861 735.116 301.237 754.183L301.459 754.264L301.688 754.332C431.047 792.622 506.989 915.266 473.932 1026.95C465.734 1054.64 452.043 1072.94 434.565 1084.64C416.954 1096.43 394.777 1102.02 368.868 1102.91C316.732 1104.71 252.088 1087.5 185.602 1067.82C120.522 1048.56 59.6818 1011.79 17.9741 970.875C-2.87645 950.419 -18.7032 929.163 -27.9765 908.819C-37.1099 888.782 -39.6681 870.156 -35.145 854.035L-34.9244 853.269Z" stroke="url(#paint3_linear_710_2)" stroke-width="15.4801"/>
<path d="M-249.11 734.505C-231.544 675.16 -183.534 636.225 -122.618 616.88C-61.629 597.512 11.4808 598.136 76.9705 617.52L78.3952 617.947C199.283 654.559 268.192 781.364 232.53 901.846C223.648 931.852 209.753 951.924 192.527 964.997C175.249 978.11 153.901 984.728 129.204 986.532C79.3583 990.174 18.0891 974.126 -45.1951 955.394C-106.79 937.162 -163.801 900.225 -202.375 858.213C-241.028 816.115 -259.42 771.023 -249.353 735.346L-249.11 734.505Z" stroke="url(#paint4_linear_710_2)" stroke-width="16.4176"/>
<path d="M98 151H116V287H98V151Z" fill="url(#paint5_linear_710_2)"/>
<path d="M98 169V151L234 151V169L98 169Z" fill="url(#paint6_linear_710_2)"/>
<rect x="1340" y="835" width="18" height="378" transform="rotate(-180 1340 835)" fill="url(#paint7_linear_710_2)"/>
<rect x="1340" y="817" width="18" height="350" transform="rotate(90 1340 817)" fill="url(#paint8_linear_710_2)"/>
<path d="M825.632 360.767C825.632 387.927 804.255 409.945 777.886 409.945C751.517 409.945 730.14 387.927 730.14 360.767C730.14 333.606 751.517 311.589 777.886 311.589C804.255 311.589 825.632 333.606 825.632 360.767Z" fill="white"/>
<circle cx="748.911" cy="442.402" r="24.5891" fill="white"/>
<path d="M610.539 512.727C611.414 508.793 689.716 295.852 689.716 295.852L689.748 295.765C690.746 293.028 692.944 287 701.519 287C706.131 287 711.048 289.95 713.015 295.852C718.965 313.7 732.446 354.865 713.813 418.305C693.158 488.63 632.855 523.546 629.905 525.513C626.954 527.481 621.222 529.929 615.151 525.513C610.419 522.071 609.664 516.661 610.539 512.727Z" fill="white"/>
<path d="M588.32 653.684C588.32 642.602 597.305 633.617 608.388 633.617V633.617C619.47 633.617 628.455 642.602 628.455 653.684V653.684C628.455 664.767 619.47 673.752 608.388 673.752V673.752C597.305 673.752 588.32 664.767 588.32 653.684V653.684Z" fill="white"/>
<path d="M696.673 621.05C696.673 619.899 696.261 619.282 695.437 619.2C694.695 619.118 693.953 619.323 693.211 619.817C690.409 621.708 687.235 623.599 683.691 625.491C680.146 627.3 676.478 629.027 672.686 630.672C668.895 632.234 665.103 633.673 661.311 634.989C657.602 636.222 654.14 637.209 650.925 637.949C649.688 638.278 649.07 638.895 649.07 639.8C649.153 640.622 649.73 641.156 650.801 641.403C651.049 641.485 651.708 641.65 652.78 641.896C653.934 642.143 655.17 642.431 656.489 642.76C657.808 643.089 658.962 643.377 659.951 643.623C661.023 643.87 661.641 643.993 661.806 643.993C662.795 644.24 663.289 644.898 663.289 645.967V714.55C663.289 717.84 662.63 720.512 661.311 722.568C659.992 724.542 658.467 726.104 656.736 727.256C655.088 728.325 653.439 729.106 651.79 729.599C650.224 730.01 649.112 730.257 648.452 730.339C647.793 730.504 647.298 730.792 646.968 731.203C646.721 731.532 646.639 731.902 646.721 732.313C646.803 732.724 647.01 733.094 647.339 733.423C647.751 733.752 648.287 733.916 648.947 733.916H711.016C711.676 733.916 712.17 733.752 712.5 733.423C712.912 733.094 713.159 732.724 713.242 732.313C713.324 731.902 713.2 731.532 712.871 731.203C712.623 730.792 712.17 730.504 711.511 730.339C710.851 730.257 709.697 730.01 708.049 729.599C706.482 729.106 704.834 728.325 703.103 727.256C701.454 726.104 699.971 724.542 698.652 722.568C697.333 720.512 696.673 717.84 696.673 714.55V621.05Z" fill="white"/>
<path d="M794.509 716.031C795.993 715.29 797.064 715.373 797.724 716.277C798.383 717.182 798.424 718.128 797.847 719.114C796.363 721.746 794.468 724.172 792.16 726.392C789.934 728.53 787.379 730.422 784.494 732.066C781.609 733.629 778.435 734.821 774.973 735.643C771.593 736.548 768.008 737 764.216 737C760.095 737 756.014 736.466 751.975 735.397C747.936 734.328 744.309 732.436 741.095 729.723C737.88 726.927 735.242 723.185 733.181 718.498C731.203 713.728 730.214 707.684 730.214 700.365V631.042C730.214 630.384 729.884 630.055 729.225 630.055H726.01C724.032 630.055 722.795 629.931 722.301 629.685C721.888 629.438 721.682 628.903 721.682 628.081C721.682 627.012 722.136 625.902 723.042 624.751C724.032 623.517 725.227 622.9 726.628 622.9H729.348C729.925 622.9 730.214 622.571 730.214 621.914V592.433C730.214 590.624 730.956 589.596 732.439 589.349C734.5 588.938 736.685 588.403 738.993 587.745C741.383 587.005 743.773 586.183 746.164 585.278C748.637 584.291 751.027 583.264 753.335 582.195C755.726 581.043 757.91 579.851 759.888 578.617C760.795 578.124 761.619 578.042 762.361 578.371C763.186 578.7 763.598 579.522 763.598 580.838V622.037C763.598 622.613 763.927 622.9 764.587 622.9H787.832C789.81 622.9 791.006 623.024 791.418 623.27C791.912 623.517 792.16 624.052 792.16 624.874C792.16 625.943 791.583 627.094 790.429 628.328C789.275 629.479 787.997 630.055 786.596 630.055H764.463C763.886 630.055 763.598 630.343 763.598 630.918V706.779C763.598 709 763.969 710.973 764.711 712.7C765.535 714.345 766.565 715.784 767.802 717.017C769.121 718.169 770.604 719.032 772.253 719.608C773.984 720.183 775.715 720.471 777.446 720.471C780.99 720.471 784.288 719.978 787.338 718.991C790.387 717.922 792.778 716.935 794.509 716.031Z" fill="white"/>
<path d="M862.233 619.817C853.743 619.817 845.788 621.379 838.37 624.504C831.033 627.629 824.645 631.905 819.205 637.332C813.764 642.678 809.478 648.969 806.346 656.205C803.213 663.36 801.647 670.966 801.647 679.025C801.647 687.166 803.09 694.773 805.975 701.845C808.86 708.835 812.858 714.962 817.968 720.224C823.079 725.405 829.179 729.517 836.268 732.56C843.439 735.52 851.27 737 859.76 737C868.25 737 876.164 735.438 883.5 732.313C890.919 729.188 897.348 724.953 902.788 719.608C908.229 714.18 912.515 707.889 915.647 700.735C918.78 693.581 920.346 685.933 920.346 677.792C920.346 669.733 918.903 662.167 916.018 655.095C913.133 648.023 909.135 641.896 904.025 636.716C898.914 631.453 892.773 627.341 885.602 624.381C878.513 621.338 870.723 619.817 862.233 619.817ZM860.997 730.463C857.04 730.463 853.578 729.106 850.61 726.392C847.725 723.678 845.294 719.978 843.315 715.29C841.337 710.521 839.853 704.97 838.864 698.638C837.958 692.306 837.504 685.563 837.504 678.408C837.504 671.254 837.958 664.511 838.864 658.179C839.853 651.847 841.337 646.337 843.315 641.65C845.294 636.88 847.725 633.139 850.61 630.425C853.578 627.711 857.04 626.354 860.997 626.354C864.953 626.354 868.374 627.711 871.259 630.425C874.227 633.139 876.658 636.88 878.554 641.65C880.532 646.337 882.016 651.847 883.005 658.179C883.994 664.511 884.489 671.254 884.489 678.408C884.489 685.563 883.994 692.306 883.005 698.638C882.016 704.97 880.532 710.521 878.554 715.29C876.658 719.978 874.227 723.678 871.259 726.392C868.374 729.106 864.953 730.463 860.997 730.463ZM848.756 611.799C849.25 611.059 850.24 609.578 851.723 607.358C853.289 605.138 855.062 602.589 857.04 599.71C859.018 596.75 861.079 593.666 863.222 590.459C865.448 587.252 867.467 584.291 869.281 581.578C871.177 578.864 872.743 576.603 873.979 574.793C875.298 572.902 876.04 571.874 876.205 571.71C877.112 570.476 878.142 569.325 879.296 568.256C880.45 567.105 881.686 566.2 883.005 565.542C884.407 564.884 885.849 564.514 887.333 564.432C888.899 564.267 890.506 564.555 892.155 565.295C893.886 566.036 895.122 567.105 895.864 568.503C896.689 569.901 897.101 571.422 897.101 573.067C897.183 574.629 896.936 576.274 896.359 578.001C895.782 579.727 895.081 581.249 894.257 582.565C892.443 585.443 889.765 588.444 886.22 591.569C882.676 594.612 878.801 597.572 874.598 600.45C870.476 603.246 866.272 605.837 861.986 608.222C857.699 610.524 853.908 612.416 850.61 613.896C849.704 614.307 849.044 614.266 848.632 613.772C848.22 613.279 848.261 612.621 848.756 611.799Z" fill="white"/>
<path d="M644.746 569.656C644.746 568.094 643.881 567.313 642.15 567.313H521.597C520.772 567.313 520.154 567.518 519.742 567.929C519.33 568.258 519.082 568.669 519 569.163C519 569.574 519.165 570.026 519.495 570.52C519.907 570.931 520.484 571.178 521.226 571.26C522.215 571.424 523.781 571.794 525.924 572.37C528.067 572.946 530.21 573.932 532.354 575.33C534.579 576.646 536.516 578.538 538.165 581.005C539.813 583.389 540.638 586.473 540.638 590.256V710.893C540.638 714.758 539.813 717.883 538.165 720.268C536.516 722.653 534.579 724.544 532.354 725.942C530.21 727.34 528.067 728.327 525.924 728.903C523.781 729.396 522.215 729.725 521.226 729.89C520.484 730.054 519.907 730.342 519.495 730.753C519.165 731.164 519 731.616 519 732.11C519.082 732.521 519.33 732.932 519.742 733.343C520.154 733.672 520.772 733.837 521.597 733.837H600.482C601.306 733.837 601.924 733.672 602.336 733.343C602.748 732.932 602.955 732.521 602.955 732.11C603.037 731.616 602.872 731.164 602.46 730.753C602.13 730.342 601.594 730.054 600.853 729.89C599.863 729.725 598.297 729.396 596.154 728.903C594.011 728.327 591.827 727.34 589.601 725.942C587.458 724.544 585.562 722.653 583.913 720.268C582.265 717.883 581.44 714.758 581.44 710.893V592.23C581.44 589.022 582.059 586.309 583.295 584.088C584.614 581.786 586.386 579.936 588.612 578.538C590.92 577.057 593.681 575.988 596.896 575.33C600.111 574.673 603.655 574.344 607.529 574.344C613.052 574.344 617.792 575.33 621.748 577.304C625.705 579.278 629.002 581.58 631.64 584.212C634.278 586.761 636.338 589.269 637.822 591.736C639.306 594.203 640.295 595.971 640.79 597.04C641.449 598.192 642.273 598.726 643.263 598.644C644.252 598.479 644.746 597.78 644.746 596.547V569.656Z" fill="white"/>
<path d="M659.471 586.185C659.471 575.103 668.455 566.118 679.538 566.118C690.621 566.118 699.606 575.103 699.606 586.185C699.606 597.268 690.621 606.253 679.538 606.253C668.455 606.253 659.471 597.268 659.471 586.185Z" fill="white"/>
</g>
<defs>
<linearGradient id="paint0_linear_710_2" x1="1200.6" y1="-155.873" x2="1545.71" y2="316.753" gradientUnits="userSpaceOnUse">
<stop stop-color="#79D97C"/>
<stop offset="1" stop-color="#38B6FF"/>
</linearGradient>
<linearGradient id="paint1_linear_710_2" x1="1283.92" y1="-177.659" x2="1561.55" y2="202.564" gradientUnits="userSpaceOnUse">
<stop stop-color="#79D97C"/>
<stop offset="1" stop-color="#38B6FF"/>
</linearGradient>
<linearGradient id="paint2_linear_710_2" x1="937.457" y1="204.029" x2="967.397" y2="13.8218" gradientUnits="userSpaceOnUse">
<stop stop-color="#79D97C"/>
<stop offset="1" stop-color="#38B6FF"/>
</linearGradient>
<linearGradient id="paint3_linear_710_2" x1="1.38909" y1="887.073" x2="481.358" y2="1029.14" gradientUnits="userSpaceOnUse">
<stop stop-color="#79D97C"/>
<stop offset="1" stop-color="#38B6FF"/>
</linearGradient>
<linearGradient id="paint4_linear_710_2" x1="-221.323" y1="789.908" x2="235.234" y2="925.048" gradientUnits="userSpaceOnUse">
<stop stop-color="#79D97C"/>
<stop offset="1" stop-color="#38B6FF"/>
</linearGradient>
<linearGradient id="paint5_linear_710_2" x1="104.5" y1="280.5" x2="234" y2="160" gradientUnits="userSpaceOnUse">
<stop stop-color="#38B6FF"/>
<stop offset="1" stop-color="#79D97C"/>
</linearGradient>
<linearGradient id="paint6_linear_710_2" x1="104.5" y1="280.5" x2="234" y2="160" gradientUnits="userSpaceOnUse">
<stop stop-color="#38B6FF"/>
<stop offset="1" stop-color="#79D97C"/>
</linearGradient>
<linearGradient id="paint7_linear_710_2" x1="1349" y1="835" x2="1349" y2="1213" gradientUnits="userSpaceOnUse">
<stop stop-color="#38B6FF"/>
<stop offset="1" stop-color="#79D97C"/>
</linearGradient>
<linearGradient id="paint8_linear_710_2" x1="1349" y1="817" x2="1349" y2="1167" gradientUnits="userSpaceOnUse">
<stop stop-color="#38B6FF"/>
<stop offset="1" stop-color="#79D97C"/>
</linearGradient>
<clipPath id="clip0_710_2">
<rect width="1440" height="1000" fill="white"/>
</clipPath>
</defs>
</svg>
